<?xml version="1.0" standalone="no"?>
<!DOCTYPE svg PUBLIC "-//W3C//DTD SVG 20010904//EN"
 "http://www.w3.org/TR/2001/REC-SVG-20010904/DTD/svg10.dtd">
<svg version="1.0" xmlns="http://www.w3.org/2000/svg"
 width="1024.000000pt" height="1024.000000pt" viewBox="0 0 1024.000000 1024.000000"
 preserveAspectRatio="xMidYMid meet">
<metadata>
Created by potrace 1.14, written by Peter Selinger 2001-2017
</metadata>
<g transform="translate(0.000000,1024.000000) scale(0.100000,-0.100000)"
fill="#000000" stroke="none">
<path d="M10 5120 l0 -5120 5115 0 5115 0 0 5120 0 5120 -5115 0 -5115 0 0
-5120z m8653 1954 c40 -9 110 -34 156 -55 67 -31 98 -54 160 -116 92 -92 137
-169 185 -313 99 -301 54 -575 -130 -779 l-46 -51 372 -380 c205 -209 371
-382 369 -383 -8 -6 -657 -177 -671 -177 -8 0 -150 149 -314 330 -164 182
-305 330 -312 330 -25 0 -212 -53 -212 -60 0 -4 45 -175 100 -380 55 -204 100
-377 100 -383 0 -7 -117 -43 -289 -89 -158 -43 -295 -80 -303 -83 -11 -5 -75
221 -322 1142 -170 631 -310 1155 -313 1163 -3 12 72 35 369 114 496 132 579
153 673 170 112 20 338 20 428 0z m-2308 -614 c406 -114 671 -479 801 -1105
24 -113 27 -154 28 -320 1 -147 -3 -209 -17 -272 -80 -371 -320 -605 -702
-684 -33 -7 -112 -12 -175 -12 -231 2 -415 86 -591 270 -159 167 -267 373
-354 673 -130 451 -105 836 73 1097 126 185 329 310 585 359 82 15 288 12 352
-6z m-1578 -312 c-45 -109 -427 -1103 -426 -1112 0 -6 249 -274 553 -596 304
-322 552 -586 551 -587 -1 -2 -145 -41 -321 -88 -175 -47 -326 -88 -335 -91
-12 -3 -108 103 -349 386 -183 215 -334 389 -335 388 -1 -2 -32 -83 -69 -181
l-68 -178 76 -283 c42 -156 76 -290 76 -297 0 -10 -91 -38 -303 -95 -166 -45
-305 -78 -308 -75 -7 7 -619 2290 -619 2309 0 7 6 12 13 12 7 0 145 36 307 79
162 44 295 79 296 78 0 -1 52 -195 115 -432 64 -236 119 -429 124 -428 5 1 86
230 179 510 l170 509 335 91 c185 50 338 92 340 92 2 1 1 -5 -2 -11z m-2622
-753 c118 -18 214 -45 310 -88 39 -17 72 -32 74 -33 4 -4 -187 -446 -198 -456
-4 -5 -52 4 -106 19 -233 61 -548 12 -627 -99 -26 -37 -34 -99 -18 -138 27
-66 99 -90 335 -115 221 -22 512 -64 575 -82 30 -8 78 -25 105 -36 238 -100
385 -336 385 -616 0 -111 -18 -194 -60 -287 -130 -288 -457 -496 -869 -555
-129 -18 -381 -6 -511 24 -117 28 -280 86 -287 103 -2 6 40 105 93 220 53 115
105 228 114 250 l18 42 80 -29 c244 -86 547 -80 704 15 57 34 98 85 98 123 0
35 -35 98 -67 121 -47 32 -86 40 -397 82 -366 49 -385 52 -483 85 -227 76
-390 249 -449 475 -20 78 -23 233 -5 310 7 30 35 101 62 157 172 358 657 578
1124 508z"/>
<path d="M8255 6564 c-225 -53 -315 -79 -315 -92 0 -20 141 -546 149 -554 6
-6 132 25 235 58 195 63 289 180 272 337 -13 107 -64 193 -140 234 -29 15
-162 27 -201 17z"/>
<path d="M6021 5969 c-84 -27 -159 -99 -187 -179 -28 -80 -26 -307 4 -447 111
-516 280 -783 499 -783 138 0 242 76 284 208 43 138 23 368 -57 652 -68 239
-145 391 -244 483 -93 87 -175 105 -299 66z m350 -426 c97 -52 156 -169 147
-293 -11 -154 -135 -261 -301 -260 -141 1 -231 73 -273 216 -48 167 42 317
221 365 55 15 152 2 206 -28z"/>
</g>
</svg>
